<?xml version="1.0" encoding="UTF-8" standalone="no"?>
<svg
   xmlns:dc="http://purl.org/dc/elements/1.1/"
   xmlns:cc="http://creativecommons.org/ns#"
   xmlns:rdf="http://www.w3.org/1999/02/22-rdf-syntax-ns#"
   xmlns:svg="http://www.w3.org/2000/svg"
   xmlns="http://www.w3.org/2000/svg"
   xmlns:sodipodi="http://sodipodi.sourceforge.net/DTD/sodipodi-0.dtd"
   xmlns:inkscape="http://www.inkscape.org/namespaces/inkscape"
   width="151mm"
   height="151mm"
   viewBox="0 0 151 151"
   version="1.1"
   id="svg8"
   inkscape:version="1.0.1 (3bc2e813f5, 2020-09-07)"
   sodipodi:docname="atlascine_icon3.svg">
  <defs
     id="defs2" />
  <sodipodi:namedview
     id="base"
     pagecolor="#ffffff"
     bordercolor="#666666"
     borderopacity="1.0"
     inkscape:pageopacity="0.0"
     inkscape:pageshadow="2"
     inkscape:zoom="0.98994949"
     inkscape:cx="403.42701"
     inkscape:cy="379.46397"
     inkscape:document-units="mm"
     inkscape:current-layer="layer1"
     inkscape:document-rotation="0"
     showgrid="false"
     inkscape:window-width="2400"
     inkscape:window-height="1321"
     inkscape:window-x="2391"
     inkscape:window-y="-6"
     inkscape:window-maximized="1"
     inkscape:pagecheckerboard="true" />
  <metadata
     id="metadata5">
    <rdf:RDF>
      <cc:Work
         rdf:about="">
        <dc:format>image/svg+xml</dc:format>
        <dc:type
           rdf:resource="http://purl.org/dc/dcmitype/StillImage" />
        <dc:title></dc:title>
      </cc:Work>
    </rdf:RDF>
  </metadata>
  <g
     inkscape:label="Layer 1"
     inkscape:groupmode="layer"
     id="layer1">
    <text
       xml:space="preserve"
       style="font-size:10.5833px;line-height:1.25;font-family:Arial;-inkscape-font-specification:'Arial, Normal';stroke-width:3.165;stroke-miterlimit:4;stroke-dasharray:none"
       x="82.209824"
       y="85.233627"
       id="text902"><tspan
         sodipodi:role="line"
         id="tspan900"
         x="82.209824"
         y="85.233627"
         style="font-style:normal;font-variant:normal;font-weight:normal;font-stretch:normal;font-size:22.5778px;font-family:Arial;-inkscape-font-specification:'Arial, Normal';font-variant-ligatures:normal;font-variant-caps:normal;font-variant-numeric:normal;font-variant-east-asian:normal;stroke-width:3.165;stroke-miterlimit:4;stroke-dasharray:none" /></text>
    <path
       id="path904"
       style="fill:#ffffff;fill-opacity:1;stroke:#000000;stroke-width:7.63464577;stroke-linecap:round;stroke-miterlimit:4;stroke-dasharray:none;stroke-opacity:1"
       d="M 285.25 11.855469 A 272.50881 272.50881 0 0 0 13.25 284.36328 A 272.50881 272.50881 0 0 0 285.75977 556.87305 A 272.50881 272.50881 0 0 0 558.26758 284.36328 A 272.50881 272.50881 0 0 0 285.75977 11.855469 A 272.50881 272.50881 0 0 0 285.25 11.855469 z M 287.5293 136.00781 A 146.83556 146.83556 0 0 1 287.89258 136.00781 A 146.83556 146.83556 0 0 1 434.72852 282.8418 A 146.83556 146.83556 0 0 1 287.89258 429.67773 A 146.83556 146.83556 0 0 1 141.05859 282.8418 A 146.83556 146.83556 0 0 1 287.5293 136.00781 z "
       transform="scale(0.26458333)" />
  </g>
</svg>
